<svg width="22" height="22" viewBox="0 0 24 15" fill="none" xmlns="http://www.w3.org/2000/svg">
<path d="M12.145 14.519C15.617 14.519 14.379 12.4056 14.647 11.7979C14.643 11.344 14.639 10.9075 14.655 10.6421C14.875 10.7017 15.394 10.9546 16.466 11.9565C18.121 13.5623 18.544 14.519 19.881 14.519H22.342C23.122 14.519 23.528 14.2084 23.731 13.9479C23.927 13.6959 24.119 13.2536 23.909 12.5652C23.36 10.9075 20.158 8.04499 19.959 7.74306C19.989 7.68729 20.037 7.61325 20.062 7.57479H20.06C20.692 6.77191 23.104 3.29691 23.459 1.90652C23.46 1.9046 23.461 1.90172 23.461 1.89883C23.653 1.26422 23.477 0.852678 23.295 0.619986C23.021 0.271909 22.585 0.0959473 21.996 0.0959473H19.535C18.711 0.0959473 18.086 0.494986 17.77 1.22287C17.241 2.51614 15.755 5.17576 14.641 6.1171C14.607 4.78345 14.63 3.76518 14.648 3.00845C14.684 1.53249 14.8 0.0959473 13.207 0.0959473H9.339C8.341 0.0959473 7.386 1.14402 8.42 2.38825C9.324 3.47864 8.745 4.08633 8.94 7.11133C8.18 6.32768 6.828 4.21133 5.872 1.50652C5.604 0.774793 5.198 0.0969087 4.055 0.0969087H1.594C0.596 0.0969087 0 0.619986 0 1.49595C0 3.46325 4.529 14.519 12.145 14.519ZM4.055 1.53922C4.272 1.53922 4.294 1.53922 4.455 1.97864C5.434 4.75075 7.63 8.85268 9.234 8.85268C10.439 8.85268 10.439 7.66518 10.439 7.21806L10.438 3.65845C10.372 2.48056 9.926 1.89402 9.633 1.53825L13.141 1.5421C13.143 1.55845 13.121 5.4796 13.151 6.4296C13.151 7.77864 14.265 8.55172 16.004 6.85941C17.839 4.86806 19.108 1.89114 19.159 1.76999C19.234 1.59691 19.299 1.53825 19.535 1.53825H21.996H22.006C22.005 1.54114 22.005 1.54402 22.004 1.54691C21.779 2.55652 19.558 5.77383 18.815 6.77287C18.803 6.78826 18.792 6.8046 18.781 6.82095C18.454 7.33441 18.188 7.90172 18.826 8.69979H18.827C18.885 8.7671 19.036 8.92479 19.256 9.14402C19.94 9.82287 22.286 12.144 22.494 13.0671C22.356 13.0883 22.206 13.0729 19.881 13.0777C19.386 13.0777 18.999 12.3661 17.522 10.9334C16.194 9.69114 15.332 9.18345 14.547 9.18345C13.023 9.18345 13.134 10.3729 13.148 11.8113C13.153 13.3709 13.143 12.8777 13.154 12.9758C13.065 13.0094 12.81 13.0767 12.145 13.0767C5.8 13.0767 1.668 3.39306 1.509 1.5421C1.564 1.53729 2.321 1.54018 4.055 1.53922Z" fill="#5F6B77"/>
</svg>
