<svg width="13" height="14" viewBox="0 0 13 14" fill="none" xmlns="http://www.w3.org/2000/svg">
<path fill-rule="evenodd" clip-rule="evenodd" d="M6.74908 0C6.97637 0 7.19435 0.0902897 7.35507 0.251006C7.51578 0.411723 7.60607 0.629701 7.60607 0.856988V10.7861L11.2843 7.10615C11.3639 7.02647 11.4585 6.96326 11.5626 6.92014C11.6667 6.87702 11.7783 6.85482 11.891 6.85482C12.0037 6.85482 12.1153 6.87702 12.2194 6.92014C12.3235 6.96326 12.4181 7.02647 12.4978 7.10615C12.5774 7.18583 12.6406 7.28042 12.6838 7.38452C12.7269 7.48863 12.7491 7.60021 12.7491 7.71289C12.7491 7.82558 12.7269 7.93716 12.6838 8.04126C12.6406 8.14537 12.5774 8.23996 12.4978 8.31964L7.35583 13.4616C7.27623 13.5414 7.18166 13.6047 7.07754 13.6479C6.97342 13.6911 6.86181 13.7133 6.74908 13.7133C6.63636 13.7133 6.52474 13.6911 6.42063 13.6479C6.31651 13.6047 6.22194 13.5414 6.14234 13.4616L1.00041 8.31964C0.920729 8.23996 0.857523 8.14537 0.814401 8.04126C0.771279 7.93716 0.749084 7.82558 0.749084 7.71289C0.749084 7.60021 0.771279 7.48863 0.814401 7.38452C0.857523 7.28042 0.920729 7.18583 1.00041 7.10615C1.16133 6.94523 1.37958 6.85482 1.60716 6.85482C1.71984 6.85482 1.83142 6.87702 1.93553 6.92014C2.03963 6.96326 2.13422 7.02647 2.2139 7.10615L5.8921 10.7861V0.856988C5.8921 0.629701 5.98239 0.411723 6.1431 0.251006C6.30382 0.0902897 6.5218 0 6.74908 0Z" fill="#08123A"/>
</svg>
