<svg width="16" height="16" viewBox="0 0 16 16" fill="none" xmlns="http://www.w3.org/2000/svg">
<path d="M2.22499 0.811C2.03639 0.628842 1.78378 0.528048 1.52159 0.530326C1.25939 0.532605 1.00858 0.637774 0.823169 0.823182C0.637761 1.00859 0.532592 1.2594 0.530314 1.5216C0.528035 1.7838 0.628829 2.0364 0.810988 2.225L6.58599 8L0.809988 13.775C0.714477 13.8672 0.638295 13.9776 0.585886 14.0996C0.533477 14.2216 0.505891 14.3528 0.504737 14.4856C0.503584 14.6184 0.528885 14.7501 0.579166 14.873C0.629447 14.9959 0.7037 15.1075 0.797593 15.2014C0.891485 15.2953 1.00314 15.3695 1.12603 15.4198C1.24893 15.4701 1.38061 15.4954 1.51339 15.4943C1.64617 15.4931 1.77739 15.4655 1.89939 15.4131C2.0214 15.3607 2.13174 15.2845 2.22399 15.189L7.99999 9.414L13.775 15.189C13.9636 15.3712 14.2162 15.472 14.4784 15.4697C14.7406 15.4674 14.9914 15.3622 15.1768 15.1768C15.3622 14.9914 15.4674 14.7406 15.4697 14.4784C15.4719 14.2162 15.3711 13.9636 15.189 13.775L9.41399 8L15.189 2.225C15.3711 2.0364 15.4719 1.7838 15.4697 1.5216C15.4674 1.2594 15.3622 1.00859 15.1768 0.823182C14.9914 0.637774 14.7406 0.532605 14.4784 0.530326C14.2162 0.528048 13.9636 0.628842 13.775 0.811L7.99999 6.586L2.22499 0.810001V0.811Z" fill="#08123A"/>
</svg>
