<svg width="180" height="38" viewBox="0 0 180 38" fill="none" xmlns="http://www.w3.org/2000/svg">
<path fill-rule="evenodd" clip-rule="evenodd" d="M0.841599 0.836022C1.96242 -0.277464 3.79789 -0.277464 4.91871 0.836022L15.3899 11.2385C16.5106 12.3521 16.5106 14.1754 15.3899 15.2889C14.269 16.4024 12.4335 16.4024 11.3127 15.2889L0.841599 4.88641C-0.279231 3.77293 -0.279231 1.94951 0.841599 0.836022Z" fill="#506CCF"/>
<path fill-rule="evenodd" clip-rule="evenodd" d="M17.1791 17.2982C18.2999 16.1847 20.1354 16.1847 21.2562 17.2982L21.5044 17.545C22.6254 18.6584 22.6254 20.4818 21.5044 21.5878C20.3836 22.7013 18.5482 22.7013 17.4273 21.5878L17.1791 21.3412C16.0583 20.2352 16.0583 18.4117 17.1791 17.2982Z" fill="#506CCF" fill-opacity="0.65"/>
<path fill-rule="evenodd" clip-rule="evenodd" d="M23.4076 23.6878C24.5285 22.5743 26.364 22.5743 27.4847 23.6878L35.9775 32.08C37.0984 33.1934 37.0984 35.0169 35.9775 36.1304C34.8567 37.2438 33.0213 37.2438 31.9004 36.1304L23.4076 27.7381C22.2793 26.6322 22.2869 24.8087 23.4076 23.6878Z" fill="#506CCF" fill-opacity="0.65"/>
<path fill-rule="evenodd" clip-rule="evenodd" d="M15.8406 0.835114C16.9614 -0.278371 18.7969 -0.278371 19.9176 0.835114L21.7005 2.60623C22.8213 3.71971 22.8213 5.54314 21.7005 6.65663C20.5797 7.77011 18.7442 7.77011 17.6235 6.65663L15.8406 4.88551C14.7198 3.77202 14.7198 1.9486 15.8406 0.835114Z" fill="#506CCF"/>
<path fill-rule="evenodd" clip-rule="evenodd" d="M23.4076 8.02431C24.5285 6.91081 26.364 6.91081 27.4847 8.02431L35.9775 16.4165C37.0984 17.53 37.0984 19.3535 35.9775 20.4669C34.8567 21.5804 33.0213 21.5804 31.9004 20.4669L23.4076 12.0746C22.2793 10.9687 22.2869 9.14526 23.4076 8.02431Z" fill="#506CCF" fill-opacity="0.65"/>
<path fill-rule="evenodd" clip-rule="evenodd" d="M30.1177 0.835114C31.2386 -0.278371 33.074 -0.278371 34.1873 0.835114L35.9777 2.60623C37.0985 3.71971 37.0985 5.54314 35.9777 6.65663C34.8567 7.77011 33.0214 7.77011 31.9006 6.65663L30.1177 4.88551C28.9894 3.77202 28.9894 1.9486 30.1177 0.835114Z" fill="#506CCF"/>
<path fill-rule="evenodd" clip-rule="evenodd" d="M6.33953 21.6775C7.46037 20.5639 9.29581 20.5639 10.4166 21.6775L20.8877 32.0874C22.0086 33.201 22.0086 35.0244 20.8877 36.1379C19.7669 37.2513 17.9315 37.2513 16.8106 36.1379L6.33953 25.7279C5.21869 24.6144 5.21869 22.791 6.33953 21.6775Z" fill="#506CCF"/>
<path fill-rule="evenodd" clip-rule="evenodd" d="M0.840624 16.3865C1.96146 15.273 3.79691 15.273 4.91774 16.3865L5.16598 16.6331C6.28681 17.7466 6.28681 19.5701 5.16598 20.6836C4.04515 21.797 2.20969 21.797 1.08886 20.6836L0.840624 20.4369C-0.280208 19.316 -0.280208 17.5001 0.840624 16.3865Z" fill="#506CCF" fill-opacity="0.65"/>
<path fill-rule="evenodd" clip-rule="evenodd" d="M0.840624 30.3088C1.96146 29.1954 3.79691 29.1954 4.91774 30.3088L6.70054 32.0874C7.82137 33.201 7.82137 35.0244 6.70054 36.1378C5.5797 37.2513 3.74426 37.2513 2.62342 36.1378L0.840624 34.3592C-0.280208 33.2458 -0.280208 31.4223 0.840624 30.3088Z" fill="#506CCF"/>
</svg>
